<?xml version="1.0" encoding="UTF-8"?>
<!DOCTYPE svg PUBLIC "-//W3C//DTD SVG 1.1//EN" "http://www.w3.org/Graphics/SVG/1.1/DTD/svg11.dtd">
<svg xmlns="http://www.w3.org/2000/svg" version="1.1" width="256px" height="220px" style="shape-rendering:geometricPrecision; text-rendering:geometricPrecision; image-rendering:optimizeQuality; fill-rule:evenodd; clip-rule:evenodd" xmlns:xlink="http://www.w3.org/1999/xlink">
<g><path style="opacity:1" fill="#fe402e" d="M 6.5,-0.5 C 29.1667,-0.5 51.8333,-0.5 74.5,-0.5C 89.714,26.0601 105.381,52.3934 121.5,78.5C 125.5,79.8333 129.5,79.8333 133.5,78.5C 149.441,52.2766 165.108,25.9432 180.5,-0.5C 203.167,-0.5 225.833,-0.5 248.5,-0.5C 250.603,2.71982 252.936,5.71982 255.5,8.5C 255.5,9.5 255.5,10.5 255.5,11.5C 236.863,42.3297 218.363,73.3297 200,104.5C 198.556,106.155 196.722,106.822 194.5,106.5C 194.5,108.5 194.5,110.5 194.5,112.5C 196.722,112.178 198.556,112.845 200,114.5C 218.363,145.67 236.863,176.67 255.5,207.5C 255.5,208.5 255.5,209.5 255.5,210.5C 252.936,213.28 250.603,216.28 248.5,219.5C 225.833,219.5 203.167,219.5 180.5,219.5C 165.108,193.057 149.441,166.723 133.5,140.5C 129.5,139.167 125.5,139.167 121.5,140.5C 105.559,166.723 89.892,193.057 74.5,219.5C 51.8333,219.5 29.1667,219.5 6.5,219.5C 4.3971,216.28 2.06376,213.28 -0.5,210.5C -0.5,209.5 -0.5,208.5 -0.5,207.5C 18.1367,176.67 36.6367,145.67 55,114.5C 56.4443,112.845 58.2776,112.178 60.5,112.5C 60.5,110.5 60.5,108.5 60.5,106.5C 58.2776,106.822 56.4443,106.155 55,104.5C 36.6367,73.3297 18.1367,42.3297 -0.5,11.5C -0.5,10.5 -0.5,9.5 -0.5,8.5C 2.06376,5.71982 4.3971,2.71982 6.5,-0.5 Z"/></g>
</svg>
